<?xml version="1.0" encoding="UTF-8" standalone="no"?>
<!-- Created with Inkscape (http://www.inkscape.org/) -->

<svg
   xmlns:dc="http://purl.org/dc/elements/1.1/"
   xmlns:cc="http://creativecommons.org/ns#"
   xmlns:rdf="http://www.w3.org/1999/02/22-rdf-syntax-ns#"
   xmlns:svg="http://www.w3.org/2000/svg"
   xmlns="http://www.w3.org/2000/svg"
   xmlns:xlink="http://www.w3.org/1999/xlink"
   xmlns:sodipodi="http://sodipodi.sourceforge.net/DTD/sodipodi-0.dtd"
   xmlns:inkscape="http://www.inkscape.org/namespaces/inkscape"
   width="48"
   height="48"
   id="svg7826"
   version="1.1"
   inkscape:version="0.91 r13725"
   viewBox="0 0 48 48"
   sodipodi:docname="power-logo.svg">
  <defs
     id="defs7828">
    <linearGradient
       inkscape:collect="always"
       id="linearGradient8421">
      <stop
         style="stop-color:#ff2525;stop-opacity:1;"
         offset="0"
         id="stop8423" />
      <stop
         style="stop-color:#ff2525;stop-opacity:0;"
         offset="1"
         id="stop8425" />
    </linearGradient>
    <linearGradient
       inkscape:collect="always"
       id="linearGradient8400">
      <stop
         style="stop-color:#ff2525;stop-opacity:1;"
         offset="0"
         id="stop8402" />
      <stop
         style="stop-color:#ff2525;stop-opacity:0;"
         offset="1"
         id="stop8404" />
    </linearGradient>
    <linearGradient
       inkscape:collect="always"
       xlink:href="#linearGradient8400"
       id="linearGradient8419"
       x1="8.875"
       y1="18.5625"
       x2="-3.375"
       y2="31.375"
       gradientUnits="userSpaceOnUse" />
    <linearGradient
       inkscape:collect="always"
       xlink:href="#linearGradient8421"
       id="linearGradient8427"
       x1="28.516926"
       y1="27.493687"
       x2="36.452087"
       y2="36.181187"
       gradientUnits="userSpaceOnUse" />
    <linearGradient
       inkscape:collect="always"
       xlink:href="#linearGradient8421"
       id="linearGradient8435"
       x1="38.875"
       y1="20.375"
       x2="46.125"
       y2="30.0625"
       gradientUnits="userSpaceOnUse" />
  </defs>
  <sodipodi:namedview
     id="base"
     pagecolor="#ffffff"
     bordercolor="#666666"
     borderopacity="1.0"
     inkscape:pageopacity="0.0"
     inkscape:pageshadow="2"
     inkscape:zoom="16"
     inkscape:cx="22.633358"
     inkscape:cy="20.511542"
     inkscape:current-layer="layer1"
     showgrid="true"
     inkscape:grid-bbox="true"
     inkscape:document-units="px"
     inkscape:window-width="1362"
     inkscape:window-height="694"
     inkscape:window-x="-6"
     inkscape:window-y="1"
     inkscape:window-maximized="1" />
  <metadata
     id="metadata7831">
    <rdf:RDF>
      <cc:Work
         rdf:about="">
        <dc:format>image/svg+xml</dc:format>
        <dc:type
           rdf:resource="http://purl.org/dc/dcmitype/StillImage" />
        <dc:title></dc:title>
      </cc:Work>
    </rdf:RDF>
  </metadata>
  <g
     id="layer1"
     inkscape:label="Layer 1"
     inkscape:groupmode="layer">
    <g
       id="g8437">
      <path
         style="opacity:1;fill:url(#linearGradient8435);fill-opacity:1;stroke:#310000;stroke-width:0;stroke-linejoin:bevel;stroke-miterlimit:4;stroke-dasharray:none;stroke-dashoffset:0;stroke-opacity:1"
         d="m 38.210367,16.781182 c -4.472708,0.0177 -5.638462,0.0118 -5.976207,0.0066 a 6.9954561,16.898116 0 0 1 5.992466,8.524584 l 6.051589,0 a 6.9954561,16.898116 0 0 0 -6.044198,-8.529191 l 0,-0.002 -0.02365,0 z m -6.169663,0.0022 0,0.0118 a 6.9954561,16.898116 0 0 1 0.0691,-0.0084 c -0.08008,-0.0017 -0.0691,-0.0032 -0.0691,-0.0032 z"
         id="path7744"
         inkscape:connector-curvature="0" />
      <path
         id="path7721"
         d="m 13.927868,16.781182 c -4.472704,0.0177 -5.6384628,0.0118 -5.9762026,0.0066 a 6.9954561,16.898116 0 0 1 5.9893206,8.512175 l -1.88e-4,0 a 6.9954561,16.898116 0 0 0 0.0032,0.01242 6.9954561,16.898116 0 0 0 6.040875,8.516828 l 0,0.002 0.02365,0 c 4.472707,-0.0177 5.638462,-0.0118 5.976206,-0.0066 A 6.9954561,16.898116 0 0 1 19.995405,25.31243 l 1.88e-4,0 a 6.9954561,16.898116 0 0 0 -0.0032,-0.01242 6.9954561,16.898116 0 0 0 -6.040875,-8.516827 l 0,-0.002 -0.02365,0 z m -6.1696592,0.0022 0,0.0118 a 6.9954561,16.898116 0 0 1 0.069103,-0.0084 c -0.080077,-0.0017 -0.069103,-0.0032 -0.069103,-0.0032 z m 18.4202872,17.03391 a 6.9954561,16.898116 0 0 1 -0.0691,0.0084 c 0.08008,0.0017 0.0691,0.0032 0.0691,0.0032 l 0,-0.0118 z"
         style="opacity:1;fill:#ff2525;fill-opacity:1;stroke:#310000;stroke-width:0;stroke-linejoin:bevel;stroke-miterlimit:4;stroke-dasharray:none;stroke-dashoffset:0;stroke-opacity:1"
         inkscape:connector-curvature="0" />
      <path
         id="ellipse7149"
         d="m 13.898907,16.745789 a 6.9954561,16.898116 0 0 0 -6.0717298,8.53123 8.2546378,19.939776 0 0 1 6.0717298,-6.467613 8.2546378,19.939776 0 0 1 6.055104,6.415097 6.9954561,16.898116 0 0 0 -6.055104,-8.478714 z"
         style="opacity:1;fill:#c60606;fill-opacity:1;stroke:#310000;stroke-width:0;stroke-linejoin:bevel;stroke-miterlimit:4;stroke-dasharray:none;stroke-dashoffset:0;stroke-opacity:1"
         inkscape:connector-curvature="0" />
      <g
         style="fill-opacity:1;fill:url(#linearGradient8419)"
         id="g8408">
        <path
           inkscape:connector-curvature="0"
           style="opacity:1;fill:url(#linearGradient8419);fill-opacity:1;stroke:#310000;stroke-width:0;stroke-linejoin:bevel;stroke-miterlimit:4;stroke-dasharray:none;stroke-dashoffset:0;stroke-opacity:1"
           d="m 7.8507771,16.781182 0,0.002 a 6.9954561,16.898116 0 0 0 -6.0441985,8.529236 l 6.0515895,0 A 6.9954561,16.898116 0 0 1 13.850633,16.78784 c -0.337744,0.0053 -1.503499,0.01119 -5.9762061,-0.0066 l -0.023639,0 z m 6.1933119,0.0022 c 0,0 0.01094,0.0015 -0.0691,0.0032 a 6.9954561,16.898116 0 0 1 0.0691,0.0084 l 0,-0.0118 z"
           id="ellipse7154" />
      </g>
      <path
         style="opacity:1;fill:#c60606;fill-opacity:1;stroke:#310000;stroke-width:0;stroke-linejoin:bevel;stroke-miterlimit:4;stroke-dasharray:none;stroke-dashoffset:0;stroke-opacity:1"
         d="m 20.008192,33.831237 a 6.9954561,16.898116 0 0 0 6.071731,-8.53123 8.2546378,19.939776 0 0 1 -6.071731,6.467611 8.2546378,19.939776 0 0 1 -6.055103,-6.415095 6.9954561,16.898116 0 0 0 6.055103,8.478714 z"
         id="path7738"
         inkscape:connector-curvature="0" />
      <path
         id="path7740"
         d="m 32.13327,16.781182 0,0.002 a 6.9954561,16.898116 0 0 0 -6.04106,8.516828 l -0.01367,0 a 6.9954561,16.898116 0 0 1 -5.992465,8.524582 c 0.337745,-0.0053 1.503318,-0.01119 5.976022,0.0066 l 0.02365,0 0,-0.002 a 6.9954561,16.898116 0 0 0 6.041244,-8.516828 l 0.01367,0 a 6.9954561,16.898116 0 0 1 5.992465,-8.524584 c -0.337743,0.0053 -1.503498,0.01119 -5.976206,-0.0066 l -0.02364,0 z m 6.193311,0.0022 c 0,0 0.01095,0.0015 -0.0691,0.0032 a 6.9954561,16.898116 0 0 1 0.0691,0.0084 l 0,-0.0118 z m -18.434147,17.033878 0,0.0118 c 0,0 -0.01098,-0.0015 0.0691,-0.0032 a 6.9954561,16.898116 0 0 1 -0.0691,-0.0084 z"
         style="opacity:1;fill:url(#linearGradient8427);fill-opacity:1;stroke:#310000;stroke-width:0;stroke-linejoin:bevel;stroke-miterlimit:4;stroke-dasharray:none;stroke-dashoffset:0;stroke-opacity:1"
         inkscape:connector-curvature="0" />
      <path
         style="opacity:1;fill:#c60606;fill-opacity:1;stroke:#310000;stroke-width:0;stroke-linejoin:bevel;stroke-miterlimit:4;stroke-dasharray:none;stroke-dashoffset:0;stroke-opacity:1"
         d="m 38.210918,16.781182 a 6.9954561,16.898116 0 0 0 -6.07173,8.53123 8.2546378,19.939776 0 0 1 6.07173,-6.467613 8.2546378,19.939776 0 0 1 6.055104,6.415098 6.9954561,16.898116 0 0 0 -6.055104,-8.478715 z"
         id="path7746"
         inkscape:connector-curvature="0" />
    </g>
    <text
       xml:space="preserve"
       style="font-style:normal;font-weight:normal;font-size:7.5px;line-height:125%;font-family:sans-serif;letter-spacing:0px;word-spacing:0px;writing-mode:tb-rl;fill:#000000;fill-opacity:1;stroke:none;stroke-width:1px;stroke-linecap:butt;stroke-linejoin:miter;stroke-opacity:1"
       x="8.3526993"
       y="26.168077"
       id="text8396"
       sodipodi:linespacing="125%"><tspan
         sodipodi:role="line"
         id="tspan8398"
         x="26.168077"
         y="8.3526993"></tspan></text>
  </g>
</svg>
